# xmcd
#
# Track frame offsets: 
#        150
#        23442
#        46855
#        78791
#        101407
#        130870
#        158196
#        191364
#
# Disc length: 2868 seconds
#
# Revision: 0
# Processed by: cddbd v1.5.2PL0 Copyright (c) Steve Scherf et al.
# Submitted via: ExactAudioCopy v1.3
#
DISCID=4e0b3208
DTITLE=Carl Carlton - Woodstock and Wonderland Live - CD 2 (2017)
DYEAR=2017
DGENRE=Blues/Rock
TTITLE0=Moonlight In New York
TTITLE1=Little Men In The Radio
TTITLE2=Strawberry Letter - 23
TTITLE3=Mutineer
TTITLE4=Sailin`Shoes
TTITLE5=Invincible
TTITLE6=Toast To Freedom
TTITLE7=Good To Be Alive
EXTD=
EXTT0=
EXTT1=
EXTT2=
EXTT3=
EXTT4=
EXTT5=
EXTT6=
EXTT7=
PLAYORDER=
